<mxfile host="app.diagrams.net" modified="2022-10-21T03:14:39.835Z" agent="5.0 (Windows NT 10.0; Win64; x64) AppleWebKit/537.36 (KHTML, like Gecko) Chrome/106.0.0.0 Safari/537.36 Edg/106.0.1370.47" etag="qYU20g1H85qTY77elGZG" version="20.4.2" type="github">
  <diagram id="yPxyJZ8AM_hMuL3Unpa9" name="gitflow">
    <mxGraphModel dx="735" dy="460" grid="1" gridSize="10" guides="1" tooltips="1" connect="1" arrows="1" fold="1" page="1" pageScale="1" pageWidth="850" pageHeight="1100" math="0" shadow="0">
      <root>
        <mxCell id="0" />
        <mxCell id="1" parent="0" />
        <mxCell id="4abAgALzCKA3rRob_T6Z-179" value="&lt;font style=&quot;font-size: 14px;&quot;&gt;&lt;b&gt;TcpServer&lt;/b&gt;&lt;/font&gt;" style="rounded=1;whiteSpace=wrap;html=1;" vertex="1" parent="1">
          <mxGeometry x="30" y="210" width="90" height="40" as="geometry" />
        </mxCell>
        <mxCell id="4abAgALzCKA3rRob_T6Z-187" value="" style="edgeStyle=orthogonalEdgeStyle;rounded=0;orthogonalLoop=1;jettySize=auto;html=1;fontSize=14;" edge="1" parent="1" source="4abAgALzCKA3rRob_T6Z-180">
          <mxGeometry relative="1" as="geometry">
            <mxPoint x="220" y="300" as="targetPoint" />
            <Array as="points">
              <mxPoint x="220" y="250" />
            </Array>
          </mxGeometry>
        </mxCell>
        <mxCell id="4abAgALzCKA3rRob_T6Z-180" value="&lt;font style=&quot;font-size: 13px;&quot;&gt;&lt;b&gt;MsgHandler&lt;/b&gt;&lt;/font&gt;" style="rounded=1;whiteSpace=wrap;html=1;" vertex="1" parent="1">
          <mxGeometry x="240" y="210" width="100" height="40" as="geometry" />
        </mxCell>
        <mxCell id="4abAgALzCKA3rRob_T6Z-181" value="&lt;font style=&quot;font-size: 14px;&quot;&gt;&lt;b&gt;Kafka&lt;/b&gt;&lt;/font&gt;" style="rounded=1;whiteSpace=wrap;html=1;" vertex="1" parent="1">
          <mxGeometry x="425" y="210" width="95" height="40" as="geometry" />
        </mxCell>
        <mxCell id="4abAgALzCKA3rRob_T6Z-206" value="" style="edgeStyle=orthogonalEdgeStyle;rounded=0;orthogonalLoop=1;jettySize=auto;html=1;fontSize=11;entryX=0;entryY=0.5;entryDx=0;entryDy=0;" edge="1" parent="1" source="4abAgALzCKA3rRob_T6Z-186" target="4abAgALzCKA3rRob_T6Z-190">
          <mxGeometry relative="1" as="geometry" />
        </mxCell>
        <mxCell id="4abAgALzCKA3rRob_T6Z-186" value="接收" style="ellipse;whiteSpace=wrap;html=1;rounded=1;gradientColor=#66FFB3;fillColor=#FFFFFF;gradientDirection=south;" vertex="1" parent="1">
          <mxGeometry x="200" y="300" width="40" height="30" as="geometry" />
        </mxCell>
        <mxCell id="4abAgALzCKA3rRob_T6Z-189" value="" style="edgeStyle=orthogonalEdgeStyle;rounded=0;orthogonalLoop=1;jettySize=auto;html=1;fontSize=14;" edge="1" parent="1">
          <mxGeometry relative="1" as="geometry">
            <mxPoint x="290" y="250" as="sourcePoint" />
            <Array as="points">
              <mxPoint x="290" y="260" />
              <mxPoint x="290" y="260" />
            </Array>
            <mxPoint x="290" y="300" as="targetPoint" />
          </mxGeometry>
        </mxCell>
        <mxCell id="4abAgALzCKA3rRob_T6Z-207" value="" style="edgeStyle=orthogonalEdgeStyle;rounded=0;orthogonalLoop=1;jettySize=auto;html=1;fontSize=11;" edge="1" parent="1" source="4abAgALzCKA3rRob_T6Z-190" target="4abAgALzCKA3rRob_T6Z-192">
          <mxGeometry relative="1" as="geometry" />
        </mxCell>
        <mxCell id="4abAgALzCKA3rRob_T6Z-212" value="" style="edgeStyle=orthogonalEdgeStyle;rounded=0;orthogonalLoop=1;jettySize=auto;html=1;fontSize=11;" edge="1" parent="1" source="4abAgALzCKA3rRob_T6Z-190">
          <mxGeometry relative="1" as="geometry">
            <mxPoint x="350" y="315" as="targetPoint" />
          </mxGeometry>
        </mxCell>
        <mxCell id="4abAgALzCKA3rRob_T6Z-214" value="" style="edgeStyle=orthogonalEdgeStyle;rounded=0;orthogonalLoop=1;jettySize=auto;html=1;fontSize=11;" edge="1" parent="1" source="4abAgALzCKA3rRob_T6Z-190" target="4abAgALzCKA3rRob_T6Z-213">
          <mxGeometry relative="1" as="geometry" />
        </mxCell>
        <mxCell id="4abAgALzCKA3rRob_T6Z-190" value="处理" style="ellipse;whiteSpace=wrap;html=1;rounded=1;gradientColor=#99FFFF;" vertex="1" parent="1">
          <mxGeometry x="270" y="300" width="40" height="30" as="geometry" />
        </mxCell>
        <mxCell id="4abAgALzCKA3rRob_T6Z-191" value="" style="edgeStyle=orthogonalEdgeStyle;rounded=0;orthogonalLoop=1;jettySize=auto;html=1;fontSize=14;" edge="1" parent="1">
          <mxGeometry relative="1" as="geometry">
            <mxPoint x="330" y="250" as="sourcePoint" />
            <Array as="points">
              <mxPoint x="360" y="250" />
            </Array>
            <mxPoint x="360" y="300" as="targetPoint" />
          </mxGeometry>
        </mxCell>
        <mxCell id="4abAgALzCKA3rRob_T6Z-192" value="发送" style="ellipse;whiteSpace=wrap;html=1;rounded=1;gradientColor=#9999FF;" vertex="1" parent="1">
          <mxGeometry x="340" y="300" width="40" height="30" as="geometry" />
        </mxCell>
        <mxCell id="4abAgALzCKA3rRob_T6Z-208" style="edgeStyle=orthogonalEdgeStyle;rounded=0;orthogonalLoop=1;jettySize=auto;html=1;fontSize=11;entryX=0;entryY=0.5;entryDx=0;entryDy=0;" edge="1" parent="1" source="4abAgALzCKA3rRob_T6Z-196" target="4abAgALzCKA3rRob_T6Z-186">
          <mxGeometry relative="1" as="geometry">
            <mxPoint x="140" y="310" as="targetPoint" />
            <Array as="points">
              <mxPoint x="150" y="340" />
              <mxPoint x="180" y="340" />
              <mxPoint x="180" y="315" />
            </Array>
          </mxGeometry>
        </mxCell>
        <mxCell id="4abAgALzCKA3rRob_T6Z-196" value="&lt;font style=&quot;font-size: 11px;&quot;&gt;来源服务&lt;/font&gt;" style="rounded=1;whiteSpace=wrap;html=1;" vertex="1" parent="1">
          <mxGeometry x="140" y="360" width="30" height="30" as="geometry" />
        </mxCell>
        <mxCell id="4abAgALzCKA3rRob_T6Z-209" value="" style="edgeStyle=orthogonalEdgeStyle;rounded=0;orthogonalLoop=1;jettySize=auto;html=1;fontSize=11;" edge="1" parent="1" source="4abAgALzCKA3rRob_T6Z-200" target="4abAgALzCKA3rRob_T6Z-186">
          <mxGeometry relative="1" as="geometry" />
        </mxCell>
        <mxCell id="4abAgALzCKA3rRob_T6Z-200" value="配置文件" style="rounded=1;whiteSpace=wrap;html=1;" vertex="1" parent="1">
          <mxGeometry x="180" y="360" width="30" height="30" as="geometry" />
        </mxCell>
        <mxCell id="4abAgALzCKA3rRob_T6Z-210" value="" style="edgeStyle=orthogonalEdgeStyle;rounded=0;orthogonalLoop=1;jettySize=auto;html=1;fontSize=11;entryX=1;entryY=1;entryDx=0;entryDy=0;" edge="1" parent="1" source="4abAgALzCKA3rRob_T6Z-202" target="4abAgALzCKA3rRob_T6Z-186">
          <mxGeometry relative="1" as="geometry" />
        </mxCell>
        <mxCell id="4abAgALzCKA3rRob_T6Z-202" value="字节数据" style="rounded=1;whiteSpace=wrap;html=1;" vertex="1" parent="1">
          <mxGeometry x="220" y="360" width="30" height="30" as="geometry" />
        </mxCell>
        <mxCell id="4abAgALzCKA3rRob_T6Z-213" value="根据配置文件处理数据" style="whiteSpace=wrap;html=1;rounded=1;gradientColor=#99FFFF;" vertex="1" parent="1">
          <mxGeometry x="260" y="350" width="60" height="50" as="geometry" />
        </mxCell>
      </root>
    </mxGraphModel>
  </diagram>
</mxfile>
